<svg xmlns="http://www.w3.org/2000/svg" fill="#31312f" xmlns:xlink="http://www.w3.org/1999/xlink" version="1.1" x="0px" y="0px" viewBox="0 0 100 125" enable-background="new 0 0 100 100" xml:space="preserve"><path d="M84.119,21.984c0,0,2.38-20.217-19.027-19.625c0,0-19.033-0.593-23.195,25.574c0,0,0,41.036-36.278,41.629  c0,0,21.828,13.95,43.414,8.604v19.348h1.784V77.687c1.393-0.417,2.783-0.909,4.164-1.504v20.141h1.783v-20.98  c0.997-0.492,1.992-1.018,2.974-1.616c0,0,23.192-10.107,24.979-44.008c0,0,4.758-7.138,7.73-7.138L84.119,21.984z M66.281,50.532  c-22.005,15.464-26.168,4.761-26.168,4.761c-1.19-9.519,13.083-11.898,13.083-11.898c-6.54-8.325,1.189-14.273,1.189-14.273  C68.063,26.147,66.281,50.532,66.281,50.532z M74.605,23.175c-2.298,0-4.164-1.863-4.164-4.162c0-2.302,1.866-4.163,4.164-4.163  c2.301,0,4.164,1.861,4.164,4.163C78.77,21.312,76.906,23.175,74.605,23.175z"/></svg>