<svg xmlns="http://www.w3.org/2000/svg" xmlns:xlink="http://www.w3.org/1999/xlink" version="1.1" x="0px" y="0px" viewBox="0 0 100 125" enable-background="new 0 0 100 100" xml:space="preserve"><g><g><circle cx="56" fill="#ecec85" cy="62.008" r="2"/><circle cx="50" cy="62.008" r="2" fill="#ecec85"/></g><path fill="#ecec85" d="M91.615,45.587L52.309,20.479c-0.97-0.62-2.211-0.631-3.19-0.024L8.425,45.562c-1.41,0.869-1.848,2.718-0.978,4.128   c0.567,0.919,1.55,1.425,2.556,1.425c0.537,0,1.082-0.144,1.572-0.447L16,47.938v47.07h6V44.236L50.666,26.55L78,44.01v50.998h6   V47.843l4.385,2.801c1.395,0.891,3.251,0.481,4.143-0.913C93.42,48.334,93.012,46.479,91.615,45.587z"/><path fill="#ecec85" d="M72.975,62.768c0-0.001,0-0.002-0.001-0.004C72.981,62.677,73,62.594,73,62.506c0-1.935-1.569-3.498-3.503-3.498   c-1.935,0-3.497,1.563-3.497,3.498c0,1.71,1.229,3.134,2.855,3.438c-0.252,2.049-0.929,4.757-2.705,6.654   c-1.488,1.59-3.506,2.363-6.171,2.363H38v-3.337c0.614,0.27,1.289,0.425,2.001,0.425c2.756,0,4.999-2.246,4.999-5.006v-0.035   v-2.037v-4.963c0,0,0-0.324,0-0.5c0-0.828-0.672-1.5-1.5-1.5s-1.5,0.672-1.5,1.5c0,0.176,0,0.5,0,0.5v4.963v2.037v0.035   c0,1.106-0.896,2.006-1.999,2.006c-1.104,0-2.001-0.899-2.001-2.006v-4.544v-0.101c0-6.079,4.879-11.024,10.877-11.024   C54.414,51.374,60,54.685,60,62.081c0,1.104,0.896,2,2,2s2-0.896,2-2c0-8.659-6.219-14.707-15.123-14.707   c-8.08,0-14.663,6.544-14.858,14.657H34v14.439v14.537h4h24.099v-12.2c2.823-0.384,5.174-1.545,6.991-3.495   C73.478,70.601,72.998,63.085,72.975,62.768z"/></g></svg>