<?xml version="1.0" encoding="utf-8"?><!DOCTYPE svg PUBLIC "-//W3C//DTD SVG 1.1//EN" "http://www.w3.org/Graphics/SVG/1.1/DTD/svg11.dtd"><svg version="1.1" xmlns="http://www.w3.org/2000/svg" xmlns:xlink="http://www.w3.org/1999/xlink" x="0px" y="0px" viewBox="0 0 100 120.1825" enable-background="new 0 0 100 96.146" xml:space="preserve"><path fill="#ecec85" d="M21.776,0l9.684,2.072c0,0-1.574,2.137,0.916,3.536c2.494,1.401,6.658-1.467,6.658-1.467l9.127,1.884
	l-1.026,5.855l-8.582,0.311l-6.49,16.169c0,0-5.471-6.156-11.328-8.578c-4.411-1.824-10.287-3.117-10.287-3.117l13.79-8.694
	l-7.751-3.503L21.776,0z"/><polygon fill="#ecec85" points="2.963,34.757 33.715,34.416 40.965,29.946 43.168,34.427 39.492,38.316 45.335,38.2 51.078,41.811 
	12.424,61.445 5.319,56.176 28.574,43.843 0,42.188 "/><path fill="#ecec85" d="M46.904,93.794c-0.743,1.362-1.981,2.352-3.71,2.352c-2.226,0-4.08-1.855-4.08-4.205
	c0-0.619,0.245-1.36,0.615-1.854l15.459-26.463l5.935,5.809L46.904,93.794z"/><path fill="#ecec85" d="M75.051,33.445c-3.587,0-6.432-2.964-6.432-6.554c0-3.584,2.847-6.424,6.432-6.424
	c3.59,0,6.554,2.841,6.554,6.424C81.603,30.481,78.639,33.445,75.051,33.445z"/><path fill="#ecec85" d="M96.536,35.007H71.556L51.012,17.402c-1.479-1.266-3.697-1.095-4.962,0.38
	c-1.265,1.477-1.093,3.699,0.382,4.962l17.689,15.157l-2.337,3.786l-6.428,11.5c-2.969,5.193,1.358,9.646,1.358,9.646l12.704,11.002
	l-6.89,11.753c-0.372,0.49-0.497,1.234-0.497,1.854c0,2.351,1.859,4.204,4.083,4.204c1.731,0,3.09-0.988,3.833-2.353l7.617-13.342
	c1.956-3.91-0.859-7.215-0.859-7.215l-9.896-9.894l9.939-17.16h19.787c1.855,0,3.463-1.482,3.463-3.34
	C99.999,36.494,98.391,35.007,96.536,35.007z"/></svg>